<mxfile host="app.diagrams.net" modified="2022-04-06T13:12:16.113Z" agent="5.0 (Macintosh; Intel Mac OS X 10_15_7) AppleWebKit/537.36 (KHTML, like Gecko) Chrome/100.0.4896.75 Safari/537.36" etag="BkgzH4xf4N9_SG0roQy3" version="17.2.4" type="github">
  <diagram id="p19fc7wj0CotDCDh4VE_" name="Page-1">
    <mxGraphModel dx="946" dy="547" grid="1" gridSize="10" guides="1" tooltips="1" connect="1" arrows="1" fold="1" page="1" pageScale="1" pageWidth="827" pageHeight="1169" math="0" shadow="0">
      <root>
        <mxCell id="0" />
        <mxCell id="1" parent="0" />
        <mxCell id="-mmJZ38PbzbZfcEarwey-3" style="edgeStyle=orthogonalEdgeStyle;rounded=0;orthogonalLoop=1;jettySize=auto;html=1;exitX=0.5;exitY=1;exitDx=0;exitDy=0;entryX=0.5;entryY=0;entryDx=0;entryDy=0;fontSize=14;" edge="1" parent="1" source="-mmJZ38PbzbZfcEarwey-1" target="-mmJZ38PbzbZfcEarwey-2">
          <mxGeometry relative="1" as="geometry" />
        </mxCell>
        <mxCell id="-mmJZ38PbzbZfcEarwey-1" value="开始" style="ellipse;whiteSpace=wrap;html=1;aspect=fixed;fontSize=14;" vertex="1" parent="1">
          <mxGeometry x="200" y="80" width="80" height="80" as="geometry" />
        </mxCell>
        <mxCell id="-mmJZ38PbzbZfcEarwey-6" style="edgeStyle=orthogonalEdgeStyle;rounded=0;orthogonalLoop=1;jettySize=auto;html=1;exitX=1;exitY=0.5;exitDx=0;exitDy=0;fontSize=14;" edge="1" parent="1" source="-mmJZ38PbzbZfcEarwey-2" target="-mmJZ38PbzbZfcEarwey-5">
          <mxGeometry relative="1" as="geometry" />
        </mxCell>
        <mxCell id="-mmJZ38PbzbZfcEarwey-8" value="是" style="edgeLabel;html=1;align=center;verticalAlign=middle;resizable=0;points=[];fontSize=14;" vertex="1" connectable="0" parent="-mmJZ38PbzbZfcEarwey-6">
          <mxGeometry x="-0.175" y="1" relative="1" as="geometry">
            <mxPoint as="offset" />
          </mxGeometry>
        </mxCell>
        <mxCell id="-mmJZ38PbzbZfcEarwey-7" style="edgeStyle=orthogonalEdgeStyle;rounded=0;orthogonalLoop=1;jettySize=auto;html=1;exitX=0.5;exitY=1;exitDx=0;exitDy=0;entryX=0.5;entryY=0;entryDx=0;entryDy=0;fontSize=14;" edge="1" parent="1" source="-mmJZ38PbzbZfcEarwey-2" target="-mmJZ38PbzbZfcEarwey-4">
          <mxGeometry relative="1" as="geometry" />
        </mxCell>
        <mxCell id="-mmJZ38PbzbZfcEarwey-9" value="否" style="edgeLabel;html=1;align=center;verticalAlign=middle;resizable=0;points=[];fontSize=14;" vertex="1" connectable="0" parent="-mmJZ38PbzbZfcEarwey-7">
          <mxGeometry x="-0.4667" y="1" relative="1" as="geometry">
            <mxPoint as="offset" />
          </mxGeometry>
        </mxCell>
        <mxCell id="-mmJZ38PbzbZfcEarwey-2" value="前置任务序号为空？" style="rhombus;whiteSpace=wrap;html=1;fontSize=14;" vertex="1" parent="1">
          <mxGeometry x="160" y="200" width="160" height="80" as="geometry" />
        </mxCell>
        <mxCell id="-mmJZ38PbzbZfcEarwey-4" value="" style="rounded=0;whiteSpace=wrap;html=1;fontSize=14;" vertex="1" parent="1">
          <mxGeometry x="180" y="340" width="120" height="60" as="geometry" />
        </mxCell>
        <mxCell id="-mmJZ38PbzbZfcEarwey-5" value="Job已下发即可进行操作" style="rounded=0;whiteSpace=wrap;html=1;fontSize=14;" vertex="1" parent="1">
          <mxGeometry x="400" y="210" width="120" height="60" as="geometry" />
        </mxCell>
        <mxCell id="-mmJZ38PbzbZfcEarwey-10" value="前置时间不为空" style="rhombus;whiteSpace=wrap;html=1;fontSize=14;" vertex="1" parent="1">
          <mxGeometry x="630" y="200" width="160" height="80" as="geometry" />
        </mxCell>
      </root>
    </mxGraphModel>
  </diagram>
</mxfile>
